<?xml version="1.0" standalone="no"?>
<!DOCTYPE svg PUBLIC "-//W3C//DTD SVG 20010904//EN"
 "http://www.w3.org/TR/2001/REC-SVG-20010904/DTD/svg10.dtd">
<svg version="1.0" xmlns="http://www.w3.org/2000/svg"
 width="67.000000pt" height="79.000000pt" viewBox="0 0 67.000000 79.000000"
 preserveAspectRatio="xMidYMid meet">

<g transform="translate(0.000000,79.000000) scale(0.100000,-0.100000)"
fill="#000000" stroke="none">
<path d="M216 625 c-20 -30 -27 -17 99 -185 56 -74 127 -170 158 -212 l57 -78
-47 0 -48 0 -54 76 -53 75 -56 -76 c-55 -73 -57 -75 -99 -75 -24 0 -43 2 -43
5 0 3 36 53 80 112 44 58 80 111 80 117 0 6 -8 21 -18 34 -17 22 -17 22 -145
-148 -70 -93 -127 -174 -127 -180 0 -6 47 -10 124 -10 l124 0 37 50 c20 28 41
48 46 45 4 -3 23 -26 40 -50 l32 -45 130 0 c71 0 127 4 125 8 -7 17 -413 561
-419 562 -4 0 -14 -11 -23 -25z"/>
<path d="M385 616 c-26 -34 -27 -37 -11 -61 21 -32 27 -31 55 5 23 32 22 59
-4 80 -10 9 -19 4 -40 -24z"/>
</g>
</svg>
